<svg width="12" height="12" fill="none" xmlns="http://www.w3.org/2000/svg"><path d="M6 0C2.692 0 0 2.692 0 6s2.692 6 6 6a5.998 5.998 0 003-.803l-.75-1.299A4.505 4.505 0 011.5 6c0-2.481 2.019-4.5 4.5-4.5s4.5 2.019 4.5 4.5v.653c0 .491-.315.847-.75.847A.751.751 0 019 6.75v-3H7.963A2.974 2.974 0 006 3C4.346 3 3 4.346 3 6s1.346 3 3 3c.788 0 1.5-.312 2.036-.81.413.491 1.024.81 1.714.81C11.012 9 12 7.97 12 6.653V6c0-3.308-2.692-6-6-6zm0 7.5c-.827 0-1.5-.673-1.5-1.5S5.173 4.5 6 4.5s1.5.673 1.5 1.5S6.827 7.5 6 7.5z" fill="#EB3F57"/></svg>