<svg width="19" height="19" fill="none" xmlns="http://www.w3.org/2000/svg"><g clip-path="url(#clip0)"><path d="M11.4 0H7.6A6.658 6.658 0 00.949 6.65v2.851a6.654 6.654 0 003.8 6.01v3.175c0 .275.345.42.541.224l2.758-2.758H11.4a6.658 6.658 0 006.651-6.65V6.65A6.658 6.658 0 0011.401 0z" fill="#665CAC"/><path d="M5.7 15.511a6.654 6.654 0 01-3.8-6.01v-2.85A6.658 6.658 0 018.55 0H7.6A6.658 6.658 0 00.949 6.65v2.851a6.654 6.654 0 003.8 6.01v3.175c0 .275.345.42.541.224l.41-.41v-2.989z" fill="#523494"/><path d="M14.281 11.804l-.284-1.542a.317.317 0 00-.25-.253l-2.239-.448a.317.317 0 00-.286.087l-.91.91C8.78 9.87 7.928 9.017 7.18 7.418l.907-.907a.317.317 0 00.086-.286l-.448-2.24a.317.317 0 00-.253-.249L5.93 3.453a.317.317 0 00-.128.002 2.21 2.21 0 00-1.074.594c-.513.512-.708 1.26-.566 2.161.238 1.515.98 3.622 2.348 4.996l.02.019c1.372 1.368 3.48 2.11 4.994 2.348.19.03.375.045.55.045.657 0 1.207-.207 1.611-.611a2.21 2.21 0 00.594-1.075.32.32 0 00.002-.128z" fill="#fff"/><path d="M7.777 6.822l.31-.31-.31.31zm3.445 2.826l-.313.312.313-.312zm1.45 3.372c-.176 0-.36-.014-.55-.044-1.515-.238-3.623-.98-4.996-2.348l-.019-.019C5.74 9.235 4.998 7.128 4.76 5.613c-.115-.728-.009-1.356.306-1.84-.12.08-.234.173-.338.276-.512.512-.708 1.26-.566 2.162.239 1.514.98 3.621 2.35 4.995l.018.02c1.373 1.367 3.48 2.109 4.995 2.347.19.03.374.045.55.045.657 0 1.207-.207 1.611-.611.104-.104.196-.217.277-.338-.358.233-.793.352-1.29.352z" fill="#E5E5E5"/><path d="M10.133 5.384a.317.317 0 000 .633c.699 0 1.267.569 1.267 1.267a.32.32 0 00.317.317.32.32 0 00.317-.317c0-1.048-.853-1.9-1.9-1.9z" fill="#fff"/><path d="M10.133 4.117a3.22 3.22 0 00-.351.02.317.317 0 10.07.63 2.536 2.536 0 012.8 2.8.32.32 0 00.28.349.32.32 0 00.35-.28 3.17 3.17 0 00-3.148-3.519z" fill="#fff"/><path d="M10.134 2.85c-.113 0-.228.005-.34.013a.317.317 0 00.047.632 3.805 3.805 0 013.992 4.667.32.32 0 00.224.378.32.32 0 00.392-.233 4.439 4.439 0 00-4.315-5.457z" fill="#fff"/></g><defs><clipPath id="clip0"><path fill="#fff" d="M0 0h19v19H0z"/></clipPath></defs></svg>