<svg width="12" height="12" fill="none" xmlns="http://www.w3.org/2000/svg"><g clip-path="url(#clip0)"><path d="M9.957 6.514c-.194-.245-.138-.354 0-.573.003-.002 1.604-2.216 1.77-2.966.082-.274 0-.475-.396-.475h-1.312c-.334 0-.488.172-.57.365 0 0-.668 1.6-1.614 2.636-.304.3-.446.395-.612.395-.082 0-.21-.095-.21-.369V2.974c0-.328-.093-.474-.37-.474H4.58c-.209 0-.333.153-.333.296 0 .31.472.382.521 1.257v1.899c0 .415-.075.492-.243.492-.446 0-1.529-1.606-2.17-3.443-.13-.357-.256-.5-.593-.5H.45c-.374 0-.45.172-.45.365 0 .341.446 2.036 2.074 4.277C3.159 8.671 4.687 9.5 6.077 9.5c.835 0 .938-.184.938-.5 0-1.462-.076-1.6.343-1.6.194 0 .528.096 1.308.834.891.874 1.037 1.266 1.537 1.266h1.312c.373 0 .563-.184.454-.547-.25-.763-1.935-2.334-2.011-2.439z" fill="#4B729F"/></g><defs><clipPath id="clip0"><path fill="#fff" d="M0 0h12v12H0z"/></clipPath></defs></svg>