<svg width="18" height="18" fill="none" xmlns="http://www.w3.org/2000/svg"><path d="M9.002 0h-.004C4.035 0 0 4.037 0 9c0 1.969.634 3.793 1.713 5.275L.592 17.62l3.46-1.106A8.922 8.922 0 009.001 18C13.965 18 18 13.962 18 9s-4.035-9-8.998-9z" fill="#4CAF50"/><path d="M14.24 12.71c-.218.612-1.08 1.12-1.767 1.27-.47.1-1.085.18-3.152-.678C6.676 12.206 4.973 9.52 4.84 9.344 4.713 9.17 3.77 7.921 3.77 6.63c0-1.292.656-1.92.92-2.19.217-.222.576-.324.92-.324.112 0 .212.006.302.01.264.012.397.028.571.445.218.523.746 1.815.81 1.947.064.133.128.313.038.487-.085.18-.159.26-.292.413-.133.153-.258.27-.391.435-.122.142-.259.295-.106.56.153.259.682 1.121 1.46 1.814 1.005.895 1.82 1.18 2.11 1.302.218.09.477.069.635-.1.202-.217.45-.577.703-.931.18-.255.408-.286.646-.196.243.084 1.529.72 1.793.851.265.133.44.196.503.307.063.112.063.635-.154 1.25z" fill="#FAFAFA"/></svg>