<svg width="50" height="50" fill="none" xmlns="http://www.w3.org/2000/svg"><path d="M48.209 26.791l-9.699-9.698a2.326 2.326 0 00-1.658-.687H23.438v1.563h3.906v11.718h1.562V17.97h7.946a.782.782 0 01.554.229l1.333 1.333h-3.583a1.562 1.562 0 00-1.562 1.563v7.031a1.563 1.563 0 001.562 1.563h11.719v6.25a.781.781 0 01-.781.78h-1.625a5.462 5.462 0 00-10.813 0H22.594a5.462 5.462 0 00-10.813 0h-1.625a.78.78 0 01-.781-.78v-7.032H7.812v7.032a2.344 2.344 0 002.344 2.343h1.625a5.452 5.452 0 001.587 3.125H1.562v1.563h37.5a5.474 5.474 0 005.407-4.688h1.625a2.344 2.344 0 002.343-2.343v-8.594a.781.781 0 00-.228-.553zM13.28 37.5a3.906 3.906 0 117.812 0 3.906 3.906 0 01-7.812 0zm7.726 3.906a5.452 5.452 0 001.587-3.125h11.062a5.452 5.452 0 001.587 3.125H21.007zm18.055 0a3.906 3.906 0 110-7.811 3.906 3.906 0 010 7.811zm-3.906-13.281v-7.031h5.146l6.573 6.573v.458H35.156z" fill="#FFC582"/><path d="M17.969 36.719h-1.563v1.562h1.563V36.72zm21.875 0H38.28v1.562h1.563V36.72zM5.469 34.375H1.562v1.563H5.47v-1.563zm0-3.125H3.125v1.563h2.344V31.25zm0-3.125H3.906v1.563H5.47v-1.563zm6.25-.781A10.156 10.156 0 101.563 17.187a10.168 10.168 0 0010.156 10.157zm0-18.75a8.594 8.594 0 11-8.594 8.594 8.604 8.604 0 018.594-8.594z" fill="#FFC582"/><path d="M11.719 24.219a.781.781 0 00.552-.23c.503-.502 4.916-5.012 4.916-8.364a5.469 5.469 0 00-10.937 0c0 3.352 4.413 7.862 4.916 8.365a.781.781 0 00.553.229zm0-12.5a3.91 3.91 0 013.906 3.906c0 2.005-2.459 5.102-3.906 6.68-1.448-1.578-3.906-4.675-3.906-6.68a3.911 3.911 0 013.906-3.906z" fill="#FFC582"/><path d="M14.063 15.625a2.344 2.344 0 10-4.689 0 2.344 2.344 0 004.688 0zm-3.126 0a.78.78 0 111.562 0 .78.78 0 01-1.562 0zM34.375 31.25H31.25v1.563h3.125V31.25z" fill="#FFC582"/></svg>