<svg width="50" height="35" fill="none" xmlns="http://www.w3.org/2000/svg"><path d="M12.406 4c2.016 0 3.656 1.558 3.656 3.471a3.316 3.316 0 01-.848 2.21 3.37 3.37 0 01.848 2.223c0 1.913-1.64 3.471-3.656 3.471S8.75 13.817 8.75 11.904a3.316 3.316 0 01.848-2.21A3.366 3.366 0 018.75 7.47C8.75 5.558 10.39 4 12.406 4zm-1.588 6.756a1.717 1.717 0 00-.443 1.148c0 1.018.911 1.846 2.031 1.846s2.031-.828 2.031-1.846a1.718 1.718 0 00-.443-1.148 1.62 1.62 0 010-2.137c.285-.315.443-.723.444-1.148 0-1.018-.912-1.846-2.032-1.846s-2.031.828-2.031 1.846c.001.425.159.833.443 1.148a1.621 1.621 0 010 2.137z" fill="#FFC582"/><path d="M42.063 12.834v3.354a.812.812 0 01-.813.812H38a.812.812 0 01-.813-.812v-3.25h-1.624v3.25a.812.812 0 01-.813.812H31.5a.812.812 0 01-.813-.812v-3.25h-11.49a6.848 6.848 0 01-1.271 2.925l-1.3-.976a5.214 5.214 0 001.038-2.813.813.813 0 01.811-.761H31.5a.812.812 0 01.813.812v3.25h1.624v-3.25a.812.812 0 01.813-.812H38a.812.812 0 01.813.812v3.25h1.624v-3.25a.812.812 0 01.813-.812 1.625 1.625 0 100-3.25H18.476a.812.812 0 01-.811-.761 5.275 5.275 0 00-10.54.354v4.063a5.252 5.252 0 001.408 3.586l-1.191 1.106A6.874 6.874 0 015.5 11.719V7.656a6.902 6.902 0 0113.695-1.218H41.25a3.25 3.25 0 01.813 6.396z" fill="#FFC582"/><path d="M7.506 17.816l.01-.009a11.158 11.158 0 0113.175 1.151l.552.483h9.038a3.656 3.656 0 013.223 5.383l9.938-5.231a4.048 4.048 0 013.77 7.164L35.28 33.034a8.967 8.967 0 01-4.162 1.029H.625v-1.626h6.5V19.441h-6.5v-1.625h6.88zm27.017 13.78l11.932-6.277a2.424 2.424 0 10-2.256-4.288L33.504 26.66a.807.807 0 01-.379.093H20.937a.812.812 0 110-1.625h9.344a2.03 2.03 0 100-4.062h-9.343a.813.813 0 01-.535-.201l-.782-.683a9.535 9.535 0 00-10.871-1.21v13.465h22.368a7.345 7.345 0 003.405-.84z" fill="#FFC582"/><path d="M5.5 28.375a2.437 2.437 0 11-4.875 0 2.437 2.437 0 014.875 0zm-3.25 0a.812.812 0 101.625 0 .812.812 0 00-1.625 0z" fill="#FFC582"/></svg>