<svg width="37" height="37" fill="none" xmlns="http://www.w3.org/2000/svg"><g clip-path="url(#clip0)"><path d="M21.923.181a.613.613 0 01.631-.149l10.107 3.369L35.792.268a.617.617 0 01.872.873l-3.132 3.132 3.369 10.106a.618.618 0 01-.15.632L14.944 36.819a.617.617 0 01-.872 0L.114 22.861a.616.616 0 010-.872L21.923.181zm-7.415 35.33l21.104-21.103-3.053-9.16-2.392 2.392a3.084 3.084 0 11-.872-.873l2.39-2.391-9.16-3.055L1.423 22.423l13.086 13.088zM28.029 9.776a.617.617 0 01-.872-.872l1.228-1.229a1.83 1.83 0 00-2.101.356 1.857 1.857 0 102.975.515l-1.23 1.23z" fill="#FFC582"/></g><defs><clipPath id="clip0"><path fill="#fff" transform="matrix(-1 0 0 1 37 0)" d="M0 0h37v37H0z"/></clipPath></defs></svg>