<svg width="46" height="46" fill="none" xmlns="http://www.w3.org/2000/svg"><path d="M34.129 20.418h7.416v1.485h-7.416v-1.485zm-3.713 4.455h11.129v1.486H30.416v-1.486zm-15.584 4.456h26.713v1.485H14.832v-1.485zm22.258 4.446h4.455v1.485H37.09v-1.485zm-7.416 0h4.455v1.485h-4.455v-1.485zm-7.426 0h4.455v1.485h-4.455v-1.485zm-6.673-14.099a2.91 2.91 0 011.476.407 2.96 2.96 0 011.494-.407 2.972 2.972 0 012.97 2.97 2.972 2.972 0 01-2.97 2.97 2.96 2.96 0 01-1.494-.407 2.91 2.91 0 01-1.476.407 2.972 2.972 0 01-2.97-2.97 2.972 2.972 0 012.97-2.97zm2.59 4.4c.126.037.253.055.38.055.815 0 1.485-.67 1.485-1.485 0-.815-.67-1.485-1.485-1.485a1.75 1.75 0 00-.38.054c.235.426.38.906.38 1.43a2.94 2.94 0 01-.38 1.432zm-2.59.055c.815 0 1.485-.67 1.485-1.485 0-.815-.67-1.485-1.485-1.485-.815 0-1.486.67-1.486 1.485 0 .815.67 1.485 1.486 1.485z" fill="#FFC582"/><path d="M1.548 16.244L32.68 6.41c.217-.073 1.956-.643 2.789 1.449l2.562 8.104h5.741A2.238 2.238 0 0146 18.191v19.296a2.226 2.226 0 01-2.228 2.228H11.12a2.212 2.212 0 01-1.856-1.005s-1.005.28-1.231.28c-.978 0-1.83-.624-2.12-1.557L.1 19.033c-.18-.562-.308-2.318 1.45-2.79zm33.405-5.107l-15.295 4.826h9.862l6.33-2.001-.897-2.825zm1.34 4.247l-1.856.588h2.037l-.181-.588zM10.377 37.487h.009c0 .408.335.743.743.743h32.643a.746.746 0 00.743-.743V18.191a.746.746 0 00-.743-.743H11.12a.746.746 0 00-.742.743v19.296zm-3.052-.498a.75.75 0 00.933.48l.643-.2V24.04l-5.152 1.63 3.576 11.32zm-4.02-12.74L8.9 22.483v-3.115l-6.493 2.046.897 2.835zm-1.793-5.66l.444 1.413 6.981-2.2a2.225 2.225 0 012.182-1.83h3.613L34.51 9.724l-.444-1.413a.745.745 0 00-.932-.48L2 17.657c-.625.163-.543.743-.49.933z" fill="#FFC582"/></svg>