<svg width="44" height="40" fill="none" xmlns="http://www.w3.org/2000/svg"><g clip-path="url(#clip0)" fill="#FFC582"><path d="M43.335 32.596L25.242 4.286c-.831-1.277-2.027-2.033-3.275-2.033-1.3 0-2.495.756-3.275 2.032L.704 32.595c-.832 1.277-.936 2.6-.26 3.593.623.992 1.923 1.56 3.587 1.56h35.977c1.611 0 2.91-.568 3.587-1.56.624-.993.52-2.316-.26-3.592zm-1.716 2.6c-.26.377-.832.566-1.663.566H3.979c-.832 0-1.456-.236-1.664-.567-.26-.378-.156-.945.26-1.607l17.989-28.31c.415-.662.935-1.04 1.403-1.04.468 0 .988.378 1.404 1.04l17.988 28.31c.416.662.52 1.23.26 1.607z"/><path d="M21.967 11.564c-.624 0-1.092.425-1.092.992v13.14c0 .566.468.992 1.092.992.624 0 1.092-.425 1.092-.993V12.556c0-.567-.468-.992-1.092-.992zm0 20.843c1.063 0 1.924-.783 1.924-1.75 0-.965-.861-1.748-1.924-1.748-1.062 0-1.923.783-1.923 1.749 0 .966.86 1.749 1.923 1.749z"/></g><defs><clipPath id="clip0"><path fill="#fff" d="M0 0h44v40H0z"/></clipPath></defs></svg>