<svg width="37" height="37" fill="none" xmlns="http://www.w3.org/2000/svg"><path d="M9.828 6.36A3.472 3.472 0 006.36 2.89a3.472 3.472 0 00-3.468 3.47A3.472 3.472 0 006.36 9.828 3.472 3.472 0 009.83 6.36zm-5.781 0a2.315 2.315 0 012.312-2.313 2.315 2.315 0 012.313 2.312 2.315 2.315 0 01-2.313 2.313 2.315 2.315 0 01-2.312-2.313zm27.676-1.901l.817-.818.818.818-.818.817-.817-.817zm-1.636 1.635l.818-.818.817.818-.817.817-.818-.817zm-1.593 1.594l.776-.777.818.818-.777.776-.817-.818z" fill="#FFC582"/><path d="M34.688 24.86H31.48a14.468 14.468 0 001.472-6.36c0-2.937-.876-5.734-2.521-8.138.436-.304.863-.624 1.277-.96l3.557 3.556 1.24-1.24-1.735-5.203.185-.185a3.006 3.006 0 00.888-2.143 3.034 3.034 0 00-5.175-2.144l-.186.186L25.281.495l-1.24 1.24L27.6 5.29c-.337.414-.656.84-.96 1.276a14.324 14.324 0 00-8.139-2.52 14.45 14.45 0 00-6.422 1.504C11.682 2.746 9.272.578 6.359.578A5.788 5.788 0 00.58 6.36v.16c0 1.144.335 2.253.97 3.206l3.103 4.654a14.432 14.432 0 00.362 9.324h-.389c-.956 0-1.734.778-1.734 1.735 0 .752.485 1.388 1.156 1.628v1.262H.578v1.936a6.165 6.165 0 006.158 6.158h6.399a6.189 6.189 0 005.539-3.473 14.33 14.33 0 005.03-.963v2.701c0 .957.778 1.735 1.734 1.735h9.25c.956 0 1.734-.778 1.734-1.734v-8.094c0-.957-.778-1.735-1.734-1.735zm-6.36 1.156h3.469v1.156h-3.469v-1.156zm-2.89-1.157H23.71c.335-1.748.533-3.702.565-5.78h7.502a13.276 13.276 0 01-1.606 5.78h-4.735zM19.06 31.68l.018-1.04h-2.533L14.7 26.954c.371-.203.658-.534.802-.937h6.77c-.781 3.113-1.998 5.172-3.213 5.664zm-3.557-6.82a1.734 1.734 0 00-1.229-1.106 33.496 33.496 0 01-.387-4.676h9.232c-.033 2.137-.247 4.086-.586 5.781h-7.03zM5.225 17.921a13.3 13.3 0 01.341-2.516 1.657 1.657 0 002.173-.535l1.82-2.73h3.73c-.335 1.748-.533 3.702-.564 5.78h-7.5zm9.245-5.781h8.067c.35 1.768.546 3.736.578 5.78h-9.229c.034-2.136.245-4.086.585-5.78zm4.03-6.938c1.027 0 2.084 1.163 2.932 3.188l-.44.44.755.376c.196.558.375 1.15.532 1.777H14.73c.904-3.59 2.386-5.78 3.77-5.78zm6.406 4.291l-1.961-.98.357-.358 2.032.508c-.15.273-.29.55-.428.83zm-.486 1.05l-.015.031c-.056.131-.086.27-.104.41h-.836a22.893 22.893 0 00-.277-1.057l1.232.616zm7.354 7.378h-7.503c-.03-2.034-.221-3.997-.56-5.781h.916a1.527 1.527 0 001.797.454l.032-.015 1.714 3.427 1.954-1.955-.748-2.993.093-.06a13.158 13.158 0 012.305 6.923zm-3.438-6.256l.508 2.031-.358.358-.98-1.961c.28-.138.557-.279.83-.428zm6.763-.51L32.591 8.65c.291-.262.577-.53.854-.808l.411-.412 1.243 3.728zm-2.286-8.844a1.877 1.877 0 011.325 3.2l-1.51 1.511a21.179 21.179 0 01-6.658 4.508.39.39 0 01-.532-.35.39.39 0 01.03-.15 21.186 21.186 0 014.508-6.66l1.51-1.51a1.869 1.869 0 011.327-.549zm-6.97-.411l3.727 1.242-.41.412c-.279.278-.547.564-.809.854L25.844 1.9zm.098 5.723l-2.993-.749-.635.635c-.38-.825-.8-1.514-1.252-2.053A13.13 13.13 0 0126 7.531c-.02.031-.042.062-.06.093zM12.117 6.84a13.248 13.248 0 013.86-1.393c-1.02 1.208-1.866 3.136-2.44 5.537H10.33l.84-1.259c.575-.863.89-1.856.947-2.885zM1.734 6.518V6.36A4.63 4.63 0 016.36 1.734a4.63 4.63 0 014.625 4.625v.16c0 .916-.268 1.803-.777 2.565l-3.43 5.145c-.187.28-.649.28-.836 0l-3.43-5.145a4.614 4.614 0 01-.777-2.566zm3.484 12.56h7.512c.025 1.6.148 3.149.369 4.625H6.265a13.168 13.168 0 01-1.047-4.625zm-.593 5.781h9.25a.579.579 0 010 1.157h-9.25a.579.579 0 010-1.157zm.578 2.313h8.315l1.734 3.469H7.295l-1.156-2.313h-.936v-1.156zm7.932 8.094h-6.4a5.007 5.007 0 01-5-5.002v-.78h3.689l1.156 2.313h11.316a5.024 5.024 0 01-4.761 3.469zm7.888-3.712c1.02-1.208 1.866-3.137 2.44-5.538h.346a1.714 1.714 0 00-.106.578v4.14a13.09 13.09 0 01-2.68.82zm14.243 3.134c0 .319-.26.578-.578.578h-9.25a.579.579 0 01-.579-.578v-8.094c0-.32.26-.578.578-.578h1.735v2.312h5.781v-2.312h1.734a.58.58 0 01.579.578v8.093z" fill="#FFC582"/><path d="M32.953 32.953h1.156v1.156h-1.156v-1.156zm-2.313 0h1.157v1.156H30.64v-1.156zM9.828 28.328h1.156v1.156H9.828v-1.156zm2.312 0h1.157v1.156H12.14v-1.156zm-4.624 0h1.156v1.156H7.516v-1.156zm8.094-8.094h1.156v1.157h-1.157v-1.157zm4.624 0h1.157v1.157h-1.157v-1.157zm-2.312 0h1.156v1.157h-1.156v-1.157zm2.312-4.624h1.157v1.156h-1.157v-1.157zm-2.312 0h1.156v1.156h-1.156v-1.157zm-2.312 0h1.156v1.156h-1.157v-1.157z" fill="#FFC582"/></svg>