<svg width="43" height="43" fill="none" xmlns="http://www.w3.org/2000/svg"><g clip-path="url(#clip0)"><path d="M3.707 43h2.007a.67.67 0 00.671-.672V40.97h30.23v1.358c0 .372.3.672.671.672h2.016c.371 0 .672-.3.672-.672V1.68c0-.926-.753-1.68-1.68-1.68-.926 0-1.68.754-1.68 1.68v10.416H34.6V2.693c0-.371-.3-.672-.672-.672H23.181a.672.672 0 00-.672.672v9.403h-2.017V2.693c0-.371-.3-.672-.672-.672H9.073a.672.672 0 00-.672.672v9.403H6.386V1.68C6.386.754 5.632 0 4.706 0c-.927 0-1.68.754-1.68 1.68l.01 40.648c0 .372.3.672.671.672zM37.958 1.68a.337.337 0 01.672 0v39.976h-.672V1.68zM27.882 3.365h1.345v.677H27.88v-.677zm-4.03 0h2.686v1.349c0 .37.3.672.672.672h2.688a.672.672 0 00.672-.672v-1.35h2.687v8.732h-9.404V3.365zm-10.079 0h1.344v.677h-1.344v-.677zm-4.028 0h2.685v1.349c0 .37.3.672.672.672h2.687a.672.672 0 00.672-.672v-1.35h2.687v8.732H9.745V3.365zM6.385 13.44h30.23v.671H6.384v-.671zm0 2.015h30.23v9.387h-2.013v-7.384c0-.37-.3-.672-.672-.672H9.07a.672.672 0 00-.672.672v7.385H6.386v-9.388zm13.435 4.69h3.36a.672.672 0 00.672-.671V18.13h9.406v6.713H9.742V18.13h9.406v1.344c0 .37.3.671.672.671zm.672-1.343v-.672h2.016v.672h-2.016zM6.385 26.186h30.229v.674H6.386v-.674zm0 2.017h30.23v9.406h-2.012v-8.055a.67.67 0 00-.672-.672h-9.408a.67.67 0 00-.671.672v8.055H21.84v-6.038a.67.67 0 00-.672-.672H16.47l-.007-.002-.006.002H13.78l-.007-.002-.006.002H9.073a.67.67 0 00-.672.672v6.038H6.386v-9.406zm21.498 4.043h2.689c.371 0 .672-.3.672-.672v-1.349h2.015v7.384h-8.064v-7.384h2.016v1.35c0 .37.3.671.672.671zm.672-1.344v-.677H29.9v.677h-1.345zm-14.782 3.36h2.69c.37 0 .671-.3.671-.672v-1.348h3.362v5.367H9.745v-5.367h3.357v1.348c0 .371.3.672.671.672zm.672-1.344v-.676h1.345v.676h-1.345zm-8.06 6.035h30.23v.673H6.384v-.673zm-1.68-37.61c.186 0 .337.151.337.337v39.976h-.663L4.37 1.68c0-.186.152-.336.337-.336z" fill="#FFC582"/></g><defs><clipPath id="clip0"><path fill="#fff" d="M0 0h43v43H0z"/></clipPath></defs></svg>