<svg width="43" height="40" fill="none" xmlns="http://www.w3.org/2000/svg"><path d="M21.5 29.75a.703.703 0 01-.703-.703V27.64a.703.703 0 011.406 0v1.406a.703.703 0 01-.703.703z" fill="#FFC582"/><path d="M37.903 11.469l4.516-5.162a.703.703 0 00-.315-1.133L26.634.252a.703.703 0 00-.74.206L21.5 5.478 17.107.459a.703.703 0 00-.74-.206L.898 5.174a.703.703 0 00-.315 1.133l4.514 5.162L.58 16.63a.703.703 0 00.317 1.134l4.43 1.41v14.092a.703.703 0 00.463.66l15.469 5.625h.015a.661.661 0 00.45 0h.015l15.47-5.625a.702.702 0 00.462-.66V19.174l4.43-1.41a.703.703 0 00.315-1.134l-4.514-5.161zM21.5 15.652L8.352 11.47l12.445-3.96v6.07a.703.703 0 001.406 0V7.51l12.445 3.96L21.5 15.652zM26.648 1.73l14.007 4.458-3.912 4.471-14.007-4.457 3.912-4.472zm-10.296 0l3.912 4.472-14.007 4.457-3.912-4.47L16.352 1.73zM6.257 12.277l14.007 4.458-3.912 4.471L2.345 16.75l3.912-4.472zm30.009 20.496l-14.063 5.113V31.86a.703.703 0 10-1.406 0v6.027L6.734 32.773V19.625l9.633 3.064a.704.704 0 00.74-.21l3.69-4.219v6.568a.703.703 0 001.406 0v-6.566l3.69 4.218a.704.704 0 00.74.206l9.633-3.061v13.148zm-9.618-11.567l-3.912-4.47 14.007-4.458 3.912 4.471-14.007 4.457z" fill="#FFC582"/></svg>