<svg width="40" height="40" fill="none" xmlns="http://www.w3.org/2000/svg"><g clip-path="url(#clip0)" fill="#FFC582"><path d="M38.176 24.974l1.145-1.144a1.85 1.85 0 000-2.613 1.837 1.837 0 00-1.307-.541c-.37 0-.725.108-1.025.31l-.241-.81 1.238-1.238a1.85 1.85 0 000-2.613 1.85 1.85 0 00-2.433-.156l-1.467-4.928a129.3 129.3 0 001.676-1.643c1.525-1.526 2.765-3.14 3.492-4.546 1.228-2.377.714-3.647.066-4.295-.647-.647-1.917-1.16-4.294.067-1.406.727-3.02 1.967-4.545 3.492-.53.529-1.08 1.09-1.643 1.676l-4.929-1.467a1.85 1.85 0 00-.156-2.433 1.85 1.85 0 00-2.613 0L19.901 3.33l-.81-.241a1.83 1.83 0 00.31-1.026c0-.494-.191-.958-.54-1.307a1.85 1.85 0 00-2.613 0l-1.144 1.145L9.272.165a.59.59 0 00-.585.148L7.186 1.814a.595.595 0 00.068.893l14.714 10.77a552.528 552.528 0 00-8.77 10.161l-4.327-1.665a.59.59 0 00-.63.134l-1.778 1.779a.59.59 0 000 .834l8.895 8.895a.595.595 0 00.834 0l1.78-1.779a.59.59 0 00.133-.629L16.44 26.88a552.98 552.98 0 0010.162-8.77l1.168 1.597c.208.284.629.32.883.078a.595.595 0 00.07-.774l-1.236-1.688a263.341 263.341 0 005.64-5.168l5.556 18.651-.766.766L30.28 21.14a.59.59 0 10-.952.697l8.043 10.987c.21.287.64.32.892.069l1.501-1.502a.59.59 0 00.149-.585l-1.738-5.832zM21.974 2.927a.675.675 0 01.946 0 .67.67 0 010 .945l-.277.276-1.456-.434.787-.787zm-4.892-1.334a.67.67 0 01.945.945l-.182.181-1.456-.433.693-.693zm-8.576.57l.766-.767 18.651 5.556a264.98 264.98 0 00-5.167 5.64L8.506 2.162zm.299 21.05l3.59 1.38c-.9 1.073-1.59 1.903-1.998 2.394l-2.683-2.683 1.09-1.091zm2.43 4.612c2.055-2.48 12.92-15.516 20.08-22.674 1.42-1.421 2.97-2.615 4.252-3.278.963-.497 2.25-.95 2.92-.28.669.668.216 1.956-.281 2.919-.662 1.282-1.857 2.832-3.278 4.252-7.158 7.159-20.193 18.025-22.673 20.08l-1.02-1.02zm5.631 3.45l-1.09 1.09-2.684-2.683c.491-.407 1.321-1.098 2.394-1.998l1.38 3.59zm20.676-9.223a.669.669 0 01.945.945l-.693.693-.434-1.456.182-.182zm-1.335-4.892a.67.67 0 01.946 0 .675.675 0 010 .945l-.788.788-.434-1.457.276-.276zm-.81 16.88l-5.032 5.031a.596.596 0 00-.031.8c.22.258.625.274.865.034l5.032-5.032a.59.59 0 10-.834-.834z"/><path d="M33.715 32.357a.59.59 0 10-.834-.833l-3.145 3.145a.596.596 0 00-.031.8c.22.257.625.273.865.033l3.145-3.145zm-1.887-3.145a.59.59 0 10-.834-.834l-2.201 2.202a.595.595 0 00-.032.8c.22.258.626.274.866.034l2.201-2.202zM6.039 4.161a.59.59 0 00-.834 0L.173 9.194a.59.59 0 10.834.833l5.032-5.032a.59.59 0 000-.834zm2.516 2.516a.59.59 0 00-.834 0L4.576 9.823a.595.595 0 00-.032.8.597.597 0 00.866.033l3.145-3.145a.59.59 0 000-.834zm.109 4.923a.596.596 0 00.834 0L11.7 9.398a.59.59 0 00-.834-.834l-2.202 2.202a.59.59 0 000 .834z"/></g><defs><clipPath id="clip0"><path fill="#fff" d="M0 0h40v40H0z"/></clipPath></defs></svg>