<svg width="46" height="46" fill="none" xmlns="http://www.w3.org/2000/svg"><path d="M19.736 7.733a7.948 7.948 0 107.948 7.948 7.957 7.957 0 00-7.948-7.948zm0 14.638a6.69 6.69 0 116.69-6.69 6.698 6.698 0 01-6.69 6.69z" fill="#FFC582"/><path d="M21.082 13.71a.629.629 0 101.258 0 2.6 2.6 0 00-1.976-2.52v-.84a.629.629 0 10-1.258 0v.844a2.594 2.594 0 000 5.034v2.596a1.337 1.337 0 01-.706-1.173.629.629 0 00-1.258 0 2.6 2.6 0 001.965 2.515v.844a.63.63 0 001.257 0v-.84a2.595 2.595 0 000-5.04v-2.599a1.337 1.337 0 01.718 1.18zm-2.682 0a1.336 1.336 0 01.707-1.173v2.348a1.339 1.339 0 01-.707-1.174zm2.682 3.94a1.336 1.336 0 01-.718 1.18v-2.36a1.337 1.337 0 01.718 1.18zm2.966 7.659H10.902a.63.63 0 000 1.257h13.146a.629.629 0 100-1.257zm-13.146 5.028h7.876a.629.629 0 000-1.258h-7.876a.63.63 0 000 1.258zm13.146 2.513H10.902a.629.629 0 100 1.258h13.146a.63.63 0 000-1.258zm-5.27 3.77h-7.876a.63.63 0 000 1.258h7.876a.629.629 0 100-1.258z" fill="#FFC582"/><path d="M40.589 24.986a.63.63 0 00-.565-.088c-2.513.824-5.107-.021-5.704-1V11.823a.629.629 0 00-.184-.445l-5.063-5.06a.629.629 0 00-.444-.184H5.779a.629.629 0 00-.628.629v36.656a.629.629 0 00.629.629h27.91a.629.629 0 00.63-.629v-2.698c.222-.265 1.006-1.05 3.263-2.238 3.228-1.7 3.265-4.6 3.265-4.723v-8.265a.628.628 0 00-.26-.509zM29.259 8.281l2.914 2.914H29.26V8.281zM6.41 42.791V7.39H28v4.433a.629.629 0 00.63.629h4.431v11.445c-.597.979-3.19 1.824-5.704 1a.63.63 0 00-.826.598v8.265c0 .123.036 3.022 3.265 4.723 2.283 1.202 3.058 1.991 3.264 2.233v2.074H6.409zm33.182-9.035c0 .092-.06 2.279-2.593 3.614a14.954 14.954 0 00-3.306 2.19c-1-.874-2.112-1.61-3.306-2.19-2.534-1.335-2.593-3.522-2.594-3.61v-7.447c2.246.463 4.69-.053 5.9-1.206 1.21 1.153 3.654 1.67 5.9 1.206v7.443z" fill="#FFC582"/><path d="M36.72 27.3a.63.63 0 00-.884.099l-2.3 2.875-1.092-.618a.63.63 0 00-.945.466.628.628 0 00.325.628l1.557.883a.628.628 0 00.801-.154l2.636-3.294a.628.628 0 00-.099-.884z" fill="#FFC582"/></svg>