<svg width="47" height="47" fill="none" xmlns="http://www.w3.org/2000/svg"><g clip-path="url(#clip0)" fill="#FFC582"><path d="M20.287 37.45a16.975 16.975 0 01-5.284-2.607 16.951 16.951 0 01-5.027-5.92 16.613 16.613 0 01-.82-1.89 16.887 16.887 0 01.276-12.188 1.7 1.7 0 00.191-.041 4.16 4.16 0 001.406-.736 4.479 4.479 0 001.693-3.512c.011-1.248-.46-2.559-1.294-3.597a.69.69 0 00-.767-.218c-1.256.442-2.348 1.306-2.997 2.372a4.48 4.48 0 00-.414 3.877c.175.496.453.97.807 1.368.017.02.034.036.06.06-.22.541-.414 1.09-.58 1.649a4.504 4.504 0 00-2.132-1.726c-1.159-.461-2.551-.495-3.82-.094a.69.69 0 00-.482.636c-.042 1.33.369 2.662 1.128 3.652a4.48 4.48 0 003.592 1.79c.327 0 .659-.04.98-.12-.044.756-.042 1.515.007 2.273a4.478 4.478 0 00-3.103-.942c-1.245.083-2.516.652-3.489 1.562a.69.69 0 00-.16.78c.536 1.22 1.48 2.244 2.592 2.81.665.339 1.37.509 2.075.509.615 0 1.231-.13 1.822-.388.323-.142.631-.33.912-.554.249.883.564 1.743.942 2.575a4.514 4.514 0 00-2.507.115c-1.184.393-2.272 1.263-2.985 2.387a.69.69 0 00.04.796c.825 1.045 1.997 1.8 3.215 2.07.342.075.684.112 1.02.112a4.459 4.459 0 002.782-.974c.273-.214.52-.47.733-.75a18.467 18.467 0 001.784 1.946 4.536 4.536 0 00-2.085.94c-.976.778-1.697 1.97-1.978 3.271a.69.69 0 00.313.733c.93.572 2.01.878 3.051.878.23 0 .457-.015.68-.045a4.479 4.479 0 003.271-2.12c.184-.298.33-.626.432-.966a18.198 18.198 0 003.736 1.552.69.69 0 10.384-1.325zm-11.9-26.177c.03-.398.132-.79.299-1.152.391-.853 1.121-1.498 1.965-1.89 1.22 1.862.705 3.804-.486 4.762-.294.237-.777.61-1.143.377-.608-.387-.68-1.461-.634-2.096zM6.74 24.633a.896.896 0 01-.04.203c-.107.33-.395.575-.707.711-1.4.614-3.36.174-4.448-1.77-.06-.108 1.173-.624 1.297-.663a4.077 4.077 0 011.573-.18 2.985 2.985 0 011.452.509c.368.258.911.7.873 1.19zm-.39-5.737c-.194.05-.411.057-.61.05-1.528-.05-3.107-1.29-3.251-3.513 2.178-.465 3.801.719 4.263 2.175.18.568.274 1.114-.402 1.288zm3.399 12.57c-.05.314-.402.604-.635.788-1.202.945-3.21 1.011-4.75-.597.58-.745 1.388-1.317 2.324-1.498.807-.156 2.818.11 3.055 1.134a.446.446 0 01.006.173zm4.812 6.001c-.8 1.302-2.662 2.057-4.663 1.08.321-1.006 1.003-1.877 1.971-2.326.658-.305 2.142-.66 2.78-.137a.64.64 0 01.247.42c.042.32-.156.673-.335.963z"/><path d="M30.329 32.726c.33-.24.493-.64.424-1.043l-1.09-6.354 4.617-4.5a1.06 1.06 0 00.27-1.093 1.058 1.058 0 00-.86-.725l-6.381-.928-2.853-5.781a1.06 1.06 0 00-.956-.594 1.06 1.06 0 00-.956.594l-1.173 2.376a.69.69 0 001.237.61l.892-1.808 2.645 5.361c.155.314.456.532.803.583l5.916.86-4.281 4.172a1.066 1.066 0 00-.307.943l1.01 5.893-5.29-2.782a1.064 1.064 0 00-.992 0l-5.292 2.782 1.011-5.892a1.065 1.065 0 00-.307-.944l-4.28-4.172 5.916-.86c.347-.05.647-.269.802-.583l.334-.677a.69.69 0 10-1.236-.61l-.262.53-6.38.926a1.059 1.059 0 00-.86.726 1.06 1.06 0 00.27 1.092l4.616 4.5-1.09 6.355a1.06 1.06 0 00.425 1.043 1.062 1.062 0 001.122.08l5.707-3 5.706 3c.362.191.792.16 1.123-.08zM20.936 9.41a.69.69 0 101.364-.2l-.27-1.842a.69.69 0 10-1.365.2l.271 1.842zm-3.158 2.023a.689.689 0 101.172-.725l-.93-1.505a.69.69 0 00-1.173.726l.93 1.504zm7.61-1.442a.69.69 0 00.782-.582l.271-1.84a.689.689 0 10-1.364-.2l-.27 1.84a.689.689 0 00.581.782zm2.992 1.666a.686.686 0 00.949-.224l.931-1.504a.69.69 0 00-1.172-.726l-.931 1.505a.69.69 0 00.223.949z"/><path d="M46.782 23.098c-.973-.91-2.244-1.48-3.49-1.562a4.477 4.477 0 00-3.102.942c.05-.758.051-1.517.006-2.272a4.15 4.15 0 001.109.117 4.48 4.48 0 003.464-1.788c.759-.99 1.17-2.322 1.128-3.653a.69.69 0 00-.481-.635c-1.27-.402-2.662-.367-3.821.095a4.5 4.5 0 00-2.131 1.725 18.006 18.006 0 00-.581-1.648.847.847 0 00.06-.062c.354-.398.632-.871.806-1.367a4.48 4.48 0 00-.413-3.877c-.649-1.066-1.742-1.93-2.997-2.373a.689.689 0 00-.767.219c-.834 1.038-1.305 2.349-1.294 3.596a4.479 4.479 0 001.693 3.512c.41.33.896.585 1.405.737.044.013.081.02.192.04a16.843 16.843 0 011.203 8.079 16.74 16.74 0 01-3.88 9.21 16.975 16.975 0 01-1.976 1.983c-.562.477-1.122.934-1.754 1.31-.624.372-1.261.752-1.917 1.063-.816.388-1.664.71-2.532.96a.69.69 0 10.385 1.325 18.2 18.2 0 003.736-1.551c.103.34.248.668.432.966.42.683.977 1.22 1.655 1.592a.69.69 0 00.665-1.207 3.094 3.094 0 01-1.146-1.108c-.335-.544-.443-1.148.243-1.417 1.922-.753 3.84.682 4.419 2.493a4.556 4.556 0 01-.948.329.69.69 0 10.304 1.344 5.968 5.968 0 001.81-.74.69.69 0 00.313-.732c-.281-1.301-1.002-2.494-1.978-3.27a4.539 4.539 0 00-2.086-.942 18.475 18.475 0 001.785-1.945c.213.28.46.535.733.75a4.459 4.459 0 002.782.974c.336 0 .678-.037 1.02-.113 1.218-.27 2.39-1.024 3.214-2.07a.69.69 0 00.041-.795c-.713-1.125-1.8-1.995-2.985-2.387a4.518 4.518 0 00-2.507-.116 17.92 17.92 0 00.942-2.574c.28.224.59.412.912.554a4.526 4.526 0 001.822.388c.705 0 1.41-.17 2.075-.51 1.112-.566 2.057-1.59 2.592-2.81a.69.69 0 00-.16-.78zM38.56 12.126c-.088.438-.188 1.174-.744 1.257-.387.058-.694-.158-.981-.39-1.19-.958-1.706-2.9-.486-4.762.102-.155 1.342.955 1.45 1.082.338.4.588.872.718 1.38.12.467.138.96.043 1.433zm4.076 19.53c-1.54 1.608-3.548 1.542-4.75.597-.268-.211-.5-.48-.675-.782a7.934 7.934 0 01-.036-.082l.174-.266c.18-.213.392-.4.623-.546 1.292-.817 3.296-.678 4.664 1.08zm-2.389-14.049c.463-1.456 2.086-2.64 4.264-2.175-.144 2.222-1.723 3.464-3.25 3.513-.37.013-.963.017-1.122-.39-.114-.291.02-.668.108-.948zm.76 7.94c-.306-.135-.677-.297-.825-.62-.321-.7.75-1.33 1.208-1.592a3.306 3.306 0 011.214-.404c1.025-.132 2.041.224 2.85.846-1.087 1.943-3.047 2.383-4.447 1.77z"/></g><defs><clipPath id="clip0"><path fill="#fff" d="M0 0h47v47H0z"/></clipPath></defs></svg>