<svg width="44" height="47" fill="none" xmlns="http://www.w3.org/2000/svg"><g clip-path="url(#clip0)" fill="#FFC582"><path d="M28.93 28.452h-8.259v-7.889c0-.422-.266-.704-.666-.704s-.666.282-.666.704V32.89l-.133-.07-4.33-8.382c-.532-1.338-1.731-2.183-3.063-2.183H2.955c-.4 0-.666.281-.666.704v6.48C.956 29.72.024 30.989.024 32.467v10.002c0 .422.266.704.666.704h1.665c.133 1.902 1.665 3.451 3.597 3.451 1.865 0 3.397-1.55 3.596-3.451h2.332c.2 1.972 1.731 3.451 3.596 3.451s3.397-1.55 3.597-3.451h.932c.4 0 .666-.352.666-.704V29.86h8.26c.399 0 .665-.281.665-.704 0-.423-.266-.704-.666-.704zm-25.31-4.86h8.193v.14c.8 0 1.532.494 1.865 1.339 0 0 0 .07.066.07l3.33 6.48-.066-.07c-.333-.141-.733-.141-.999.07-.333.211-.466.564-.466.916v1.62H10.28v-3.451c0-.775-.6-1.41-1.332-1.41H3.621v-5.704zm2.332 21.623c-1.266 0-2.265-1.057-2.265-2.395s1-2.395 2.265-2.395c1.265 0 2.264 1.056 2.264 2.395 0 1.338-1.065 2.395-2.264 2.395zm9.524 0c-1.265 0-2.264-1.057-2.264-2.395s.999-2.395 2.264-2.395c1.266 0 2.265 1.056 2.265 2.395 0 1.338-1 2.395-2.265 2.395zm3.863-3.452h-.466c-.466-1.62-1.798-2.747-3.463-2.747s-3.064 1.198-3.464 2.747H9.35c-.467-1.62-1.799-2.747-3.464-2.747s-3.063 1.198-3.463 2.747H1.356v-3.662H19.34v3.662zm.067-5.07H1.356v-4.156c0-.986.733-1.761 1.599-1.761h5.927v4.155c0 .423.267.705.666.705h6.594c.4 0 .666-.282.666-.705v-1.83l2.598 1.478v2.113z"/><path d="M43.716 15.632L22.403.278a.688.688 0 00-.733 0L.29 15.632c-.266.141-.333.493-.266.775.067.282.333.493.666.493h.4v4.014c0 .423.266.705.666.705s.666-.282.666-.705V16.9h39.163v28.314h-20.78c-.4 0-.667.281-.667.704 0 .422.267.704.666.704h21.447c.4 0 .666-.282.666-.704V16.9h.4c.266 0 .532-.211.666-.493.066-.282-.067-.634-.267-.775zm-40.895-.14L22.003 1.686 41.185 15.49H2.821z"/><path d="M29.663 34.79h-6.927c-.4 0-.666.282-.666.705v7.325c0 .423.266.705.666.705h6.927c.4 0 .666-.282.666-.705v-7.325a.687.687 0 00-.666-.704zm-.666 7.326h-5.595v-5.917h5.595v5.917zm10.39-7.326H32.46c-.4 0-.666.282-.666.705v7.325c0 .423.266.705.666.705h6.927c.4 0 .666-.282.666-.705v-7.325c0-.423-.266-.704-.666-.704zm-.666 7.326h-5.595v-5.917h5.595v5.917zm.666-17.608H32.46c-.4 0-.666.281-.666.704v7.325c0 .352.266.705.666.705h6.927c.4 0 .666-.282.666-.705v-7.325c0-.423-.266-.704-.666-.704zm-.666 7.325h-5.595v-5.917h5.595v5.917zm-9.058-13.03h-6.927c-.4 0-.666.281-.666.704v7.325c0 .423.266.705.666.705h6.927c.4 0 .666-.282.666-.705v-7.325c0-.423-.267-.704-.666-.704zm-.666 7.254h-5.595v-5.916h5.595v5.916zM22.137 5.21c-2.265 0-4.13 1.971-4.13 4.366 0 2.395 1.865 4.367 4.13 4.367 2.264 0 4.129-1.972 4.129-4.367s-1.865-4.367-4.13-4.367zm0 7.324c-1.532 0-2.798-1.338-2.798-2.958s1.266-2.958 2.798-2.958c1.531 0 2.797 1.338 2.797 2.958s-1.266 2.958-2.797 2.958z"/></g><defs><clipPath id="clip0"><path fill="#fff" transform="translate(0 .134)" d="M0 0h44v46.529H0z"/></clipPath></defs></svg>