<svg width="49" height="49" fill="none" xmlns="http://www.w3.org/2000/svg"><g clip-path="url(#clip0)" fill="#FFC582"><path d="M11.5 24.525c-4.602 0-8.345 3.744-8.345 8.345 0 4.601 3.743 8.344 8.345 8.344 4.6 0 8.344-3.743 8.344-8.344 0-4.601-3.743-8.345-8.344-8.345zm0 1.455c3.22 0 5.93 2.221 6.681 5.211a6.921 6.921 0 01-2.35 3.68 6.903 6.903 0 01-4.33 1.532 6.904 6.904 0 01-4.333-1.532 6.921 6.921 0 01-2.35-3.68c.751-2.99 3.461-5.21 6.682-5.21zm0 13.78c-3.241 0-5.965-2.25-6.696-5.27.416.56.902 1.069 1.448 1.511a8.361 8.361 0 005.248 1.857 8.36 8.36 0 005.248-1.857 8.396 8.396 0 001.447-1.51c-.732 3.019-3.455 5.268-6.695 5.268z"/><path d="M48.252 28.792c0-.004-.14-.353-.196-.484l-6.198-15.025a8.218 8.218 0 00-3.838-4.185l-.583-1.413a4.99 4.99 0 00-4.62-3.09 5.002 5.002 0 00-4.996 4.995v1.678A8.2 8.2 0 0026 16.425v.555h-3.002v-.555a8.2 8.2 0 00-1.82-5.157V9.59a5.002 5.002 0 00-4.997-4.996 4.989 4.989 0 00-4.62 3.09l-.582 1.414a8.217 8.217 0 00-3.838 4.185l-1.59 3.857a.727.727 0 101.344.555l1.59-3.857A6.764 6.764 0 0114.76 9.64a6.792 6.792 0 016.785 6.785v10.852c-1.968-3.52-5.733-5.907-10.045-5.907-2.7 0-5.186.937-7.15 2.5l1.57-3.806a.728.728 0 00-1.345-.554l-3.63 8.798A11.444 11.444 0 000 32.87c0 6.34 5.159 11.5 11.5 11.5 6.34 0 11.499-5.16 11.499-11.5v-.468h3.002v.468c0 6.34 5.159 11.5 11.5 11.5C43.84 44.37 49 39.21 49 32.87c0-1.435-.265-2.81-.748-4.078zM14.76 8.185c-.658 0-1.302.079-1.922.226l.071-.172a3.538 3.538 0 013.274-2.191 3.546 3.546 0 013.542 3.543v.263a8.198 8.198 0 00-4.965-1.669zm18.059-2.137a3.538 3.538 0 013.274 2.191l.07.172a8.292 8.292 0 00-1.922-.226 8.198 8.198 0 00-4.964 1.67V9.59a3.546 3.546 0 013.542-3.543zm-5.362 10.377a6.792 6.792 0 016.785-6.785 6.763 6.763 0 016.272 4.198l4.139 10.033a11.446 11.446 0 00-7.152-2.5c-4.312 0-8.076 2.385-10.044 5.906V16.425zm-1.455 2.01v6.984H23v-6.984h3.002zM11.5 42.915c-5.54 0-10.045-4.506-10.045-10.045S5.961 22.825 11.5 22.825c5.538 0 10.044 4.506 10.044 10.045S17.038 42.915 11.5 42.915zm11.499-11.968v-4.074h3.002v4.074h-3.002zM37.5 42.915c-5.538 0-10.044-4.506-10.044-10.045S31.962 22.825 37.5 22.825c5.54 0 10.045 4.506 10.045 10.045S43.039 42.915 37.5 42.915z"/><path d="M43.15 27.71a.727.727 0 00-.143 1.02c.56.742.955 1.572 1.177 2.455a6.92 6.92 0 01-2.352 3.686 6.9 6.9 0 01-4.332 1.532 6.903 6.903 0 01-4.332-1.532 6.92 6.92 0 01-2.35-3.68c.752-2.99 3.462-5.21 6.682-5.21a6.86 6.86 0 013.852 1.175.727.727 0 10.814-1.205 8.305 8.305 0 00-4.666-1.426c-4.6 0-8.344 3.744-8.344 8.345 0 4.601 3.743 8.344 8.344 8.344 4.602 0 8.345-3.743 8.345-8.344 0-1.826-.58-3.56-1.676-5.016a.726.726 0 00-1.018-.143zM37.5 39.76c-3.24 0-5.963-2.25-6.694-5.268a8.37 8.37 0 001.447 1.51 8.361 8.361 0 005.248 1.856 8.358 8.358 0 005.247-1.857 8.365 8.365 0 001.448-1.51c-.731 3.019-3.455 5.268-6.696 5.268z"/></g><defs><clipPath id="clip0"><path fill="#fff" d="M0 0h49v49H0z"/></clipPath></defs></svg>