<svg width="51" height="51" fill="none" xmlns="http://www.w3.org/2000/svg"><path d="M42.555 10.314L25.662 1.1a.822.822 0 00-.8.005L8.436 10.32a.864.864 0 00-.436.755v12.033C8.01 33 13.736 41.95 22.592 45.912l2.28 1.016a.822.822 0 00.67.001l2.569-1.135C37.13 41.917 42.999 32.88 43 22.869V11.074a.864.864 0 00-.445-.76zm-1.237 12.555c-.002 9.322-5.467 17.734-13.866 21.341l-.006.003-2.237.989-1.944-.868c-8.243-3.69-13.574-12.019-13.583-21.227V11.583l15.59-8.744 16.046 8.75v11.28z" fill="#FFC582"/><path d="M18.529 22.475a.894.894 0 00-1.224-.092.809.809 0 00-.097 1.174l4.585 5.15a.894.894 0 001.208.106L33.68 20.48a.81.81 0 00.125-1.172.893.893 0 00-1.221-.12l-10.021 7.82-4.034-4.532z" fill="#FFC582"/></svg>