<svg width="50" height="50" fill="none" xmlns="http://www.w3.org/2000/svg"><g clip-path="url(#clip0)"><path d="M43.005 14.874H30.81l8.161-6.607a2.301 2.301 0 00.18-3.41L34.966.672a2.302 2.302 0 00-3.411.18L26.36 7.27a.732.732 0 001.139.922l5.195-6.418a.824.824 0 01.604-.308.822.822 0 01.633.243l4.183 4.183c.17.169.256.394.243.633a.823.823 0 01-.308.604l-7.683 6.22a3.855 3.855 0 00-.946-1.91l4.317-4.317a.732.732 0 10-1.035-1.036l-4.47 4.47a3.84 3.84 0 00-1.667-.38h-.573L18.444.853a2.301 2.301 0 00-3.411-.179L10.85 4.856a2.301 2.301 0 00.179 3.411l8.16 6.607H6.996a2.3 2.3 0 00-2.298 2.298V25c0 1.011.657 1.871 1.566 2.178v20.524A2.3 2.3 0 008.56 50h32.878a2.3 2.3 0 002.298-2.298V27.178A2.302 2.302 0 0045.303 25v-7.828a2.3 2.3 0 00-2.298-2.298zm-14.04-.834v.834h-7.93v-.834a2.402 2.402 0 012.4-2.398h3.13a2.402 2.402 0 012.4 2.398zm-1.566 34.495H22.6V16.338h4.8v32.197zM11.643 6.525a.824.824 0 01.243-.633l4.183-4.183a.821.821 0 01.633-.243.824.824 0 01.603.308l6.803 8.403h-.674a3.84 3.84 0 00-1.666.378l-4.47-4.47a.732.732 0 10-1.035 1.037l4.317 4.317a3.854 3.854 0 00-.946 1.91l-7.684-6.22a.823.823 0 01-.307-.604zM7.727 47.702V27.298h11.01a.732.732 0 000-1.465H6.995A.834.834 0 016.162 25v-7.828c0-.46.374-.833.833-.833h14.141v32.196H8.561a.834.834 0 01-.834-.833zm33.712.833H28.864V27.298h13.409v20.404c0 .46-.374.833-.834.833zM43.84 25c0 .46-.375.833-.834.833H28.864V16.34h14.141c.46 0 .833.373.833.833V25z" fill="#FFC582"/></g><defs><clipPath id="clip0"><path fill="#fff" d="M0 0h50v50H0z"/></clipPath></defs></svg>