<svg width="54" height="54" fill="none" xmlns="http://www.w3.org/2000/svg"><path d="M13.875 46.25h-.996c.65-.993.995-2.154.996-3.34v-2.2c0-.484-.08-.965-.237-1.422l-2.707-7.87a2.63 2.63 0 00-1.781-1.837l1.65-6.162a2.596 2.596 0 00-1.042-2.837 2.452 2.452 0 00-.787-.375 2.481 2.481 0 00-.7-.097 2.596 2.596 0 00-2.526 1.902l-4.669 14.35a4.417 4.417 0 00-.119 2.259l1.35 5.243c.128.497.193 1.009.193 1.522v.864h-.875a.875.875 0 00-.875.875v5.25a.875.875 0 00.875.875h12.25a.875.875 0 00.875-.875v-5.25a.875.875 0 00-.875-.875zm-9.873-2.826l-1.34-5.197a2.625 2.625 0 01.079-1.327l4.684-14.397a.864.864 0 011.336-.48.86.86 0 01.35.944l-1.807 6.745a2.6 2.6 0 00-1.532 2.38c-.003.23.027.459.088.68l1.584 5.917a.875.875 0 101.69-.453l-1.586-5.937a.85.85 0 01.555-1.02c.02-.007.103-.035.116-.038a.887.887 0 011.04.69l2.723 7.926a2.6 2.6 0 01.143.852v2.201c0 .864-.255 1.709-.735 2.427l-.608.913H4.25v-.864c0-.662-.084-1.321-.248-1.962zM13 51.5H2.5V48H13v3.5zm26.25-4.375v5.25a.875.875 0 00.875.875h12.25a.875.875 0 00.875-.875v-5.25a.875.875 0 00-.875-.875H51.5v-.864c0-.515.065-1.028.193-1.526l1.35-5.243a4.417 4.417 0 00-.12-2.259l-4.668-14.345a2.595 2.595 0 00-2.521-1.9 2.473 2.473 0 00-.7.098 2.45 2.45 0 00-.788.375 2.595 2.595 0 00-1.041 2.836l1.645 6.163a2.63 2.63 0 00-1.782 1.837l-2.706 7.87a4.36 4.36 0 00-.237 1.418v2.2c0 1.187.346 2.347.996 3.34h-.996a.875.875 0 00-.875.875zm10.5-1.739v.864h-6.532l-.608-.913a4.364 4.364 0 01-.735-2.427v-2.2c0-.29.048-.578.143-.853l2.724-7.926a.887.887 0 011.039-.69c.013 0 .096.03.116.038a.849.849 0 01.58.814.73.73 0 01-.025.206l-1.59 5.937a.875.875 0 101.69.453l1.584-5.916c.062-.222.091-.45.088-.68a2.6 2.6 0 00-1.528-2.38l-1.806-6.747a.86.86 0 01.35-.944.863.863 0 011.336.48l4.684 14.397c.14.428.166.886.078 1.327L50 43.423a7.9 7.9 0 00-.249 1.963zM41 48h10.5v3.5H41V48zm.35-41.051l-14-6.125a.875.875 0 00-.7 0l-14 6.125a.875.875 0 00-.525.801v17.5a.875.875 0 00.478.78l14 7.122a.875.875 0 00.79.003l14-7.035a.875.875 0 00.482-.783V7.75a.875.875 0 00-.525-.801zM27 2.579L38.817 7.75 27 12.92l-3.071-1.344 4.673-2.044a.875.875 0 000-1.603L24.847 6.29a.875.875 0 00-.7 0l-6.152 2.69-2.808-1.231L27 2.58zm-7.875 8.806l1.75.765v3.81l-1.75-.876v-3.7zm1.05-1.45l4.319-1.887 1.566.684-4.31 1.889-1.575-.685zm-6.3-.847l3.5 1.531v5.006a.876.876 0 00.484.783l3.5 1.75a.875.875 0 001.266-.783v-4.463l3.5 1.532v16.501l-12.25-6.231V9.088zm14 21.865V14.447l12.25-5.36v15.71l-12.25 6.156z" fill="#FFC582"/><path d="M32.738 24.579l-3.506 1.762a.875.875 0 00.788 1.564l3.506-1.763a.875.875 0 10-.788-1.563zm-3.113-.082c.136 0 .27-.031.392-.092l3.456-1.737a.875.875 0 10-.787-1.564l-3.456 1.737a.875.875 0 00.395 1.656z" fill="#FFC582"/></svg>