<svg width="59" height="59" fill="none" xmlns="http://www.w3.org/2000/svg"><g clip-path="url(#clip0)" fill="#FFC582"><path d="M51.09 14.3L34.605 5.374c-1.564-.848-3.714-.196-4.561 1.368L20.4 24.66H8.672A2.642 2.642 0 006 27.332v28.996A2.642 2.642 0 008.672 59h37.466a2.642 2.642 0 002.672-2.672v-6.776h1.108a1.03 1.03 0 001.042-1.043v-7.754a1.03 1.03 0 00-1.042-1.042H48.81v-7.624c0-1.238-.912-2.346-2.085-2.606l5.734-10.621A3.416 3.416 0 0051.09 14.3zm-11.728-3.974L29.067 29.417h-2.933L37.146 9.153l2.216 1.173zm-7.428-2.607c.325-.586 1.107-.847 1.694-.521l1.629.912-11.468 21.308h-3.584l11.729-21.7zM8.02 27.267c0-.195.26-.521.586-.521h10.621l-1.433 2.606H8.606c-.195 0-.39 0-.586.066v-2.15zm38.64 29.061a.585.585 0 01-.587.587H8.606a.584.584 0 01-.586-.587V32.09c0-.326.26-.586.586-.586h37.402c.326 0 .586.26.586.586v7.624H42.62a3.128 3.128 0 00-3.128 3.127v3.584a3.128 3.128 0 003.128 3.128h4.04v6.776zm2.085-14.53h.065v5.669h-6.19a1.03 1.03 0 01-1.043-1.043V42.84a1.03 1.03 0 011.043-1.042h6.125zm1.824-23.979l-6.255 11.599H31.412l9.774-18.05 8.862 4.822c.652.26.847 1.043.521 1.63z"/><path d="M46.594 16.841l-.52-.26c-1.304-.717-3.063-.196-3.78 1.108l-.652 1.238c-.325.651-.456 1.433-.195 2.15.195.717.717 1.303 1.368 1.629l.522.26c.39.196.847.326 1.303.326 1.042 0 1.954-.586 2.476-1.433l.651-1.238c.652-1.369.13-3.063-1.173-3.78zm-.716 2.802l-.652 1.238c-.195.326-.651.456-.977.261l-.522-.326c-.13-.065-.26-.26-.325-.39-.066-.196-.066-.392.065-.522l.651-1.238c.13-.195.391-.391.652-.391.13 0 .195 0 .326.065l.521.26c.26.261.391.652.26 1.043z"/></g><defs><clipPath id="clip0"><path fill="#fff" d="M0 0h59v59H0z"/></clipPath></defs></svg>