<svg width="84" height="85" fill="none" xmlns="http://www.w3.org/2000/svg"><g clip-path="url(#clip0)" fill="#FFC582"><path d="M69.266 47.153l-1.018-16.956a.95.95 0 00-.424-.736l-14.176-9.36a.949.949 0 00-.998-.029L9.887 44.762a.95.95 0 00-.348 1.297l15.194 26.315a.95.95 0 001.297.348l42.763-24.69a.949.949 0 00.473-.879zm-43.363 23.45L11.659 45.93l41.433-23.92 13.29 8.774.953 15.896-41.432 23.921z"/><path d="M60.12 31.11a2.849 2.849 0 102.848 4.935 2.849 2.849 0 00-2.848-4.935zm1.899 3.29a.95.95 0 11-.95-1.645.95.95 0 01.95 1.645zM17.45 50.264l-2.374-4.112a.95.95 0 10-1.645.95l2.374 4.111a.95.95 0 101.645-.95zm1.899 3.289l-.475-.822a.95.95 0 00-1.645.95l.475.822a.95.95 0 001.645-.95z"/></g><defs><clipPath id="clip0"><path fill="#fff" transform="rotate(60 25.52 46.179)" d="M0 0h60.774v60.774H0z"/></clipPath></defs></svg>