<svg width="20" height="20" fill="none" xmlns="http://www.w3.org/2000/svg"><path d="M10 20c5.514 0 10-4.486 10-10S15.514 0 10 0 0 4.486 0 10s4.486 10 10 10zM10 .892c5.022 0 9.108 4.086 9.108 9.108S15.022 19.108 10 19.108.892 15.022.892 10 4.978.892 10 .892z" fill="#FFC582"/><path d="M7.535 9.101a1.846 1.846 0 100-3.693 1.846 1.846 0 000 3.693zm0-2.801a.955.955 0 110 1.91.955.955 0 010-1.91zm2.972 6.557a1.846 1.846 0 103.692 0 1.846 1.846 0 00-3.692 0zm2.8 0a.955.955 0 11-1.909 0 .955.955 0 011.91 0zm-6.702 2.349a.446.446 0 00.617-.13l6.303-9.664a.447.447 0 10-.747-.487l-6.303 9.664a.446.446 0 00.13.617z" fill="#FFC582"/></svg>