<svg width="21" height="21" fill="none" xmlns="http://www.w3.org/2000/svg"><path d="M18.9 1.64H2.1A1.84 1.84 0 00.263 3.479v10.923A1.84 1.84 0 002.1 16.24h6.114l1.926 2.926a.43.43 0 00.72 0l1.926-2.926H18.9a1.84 1.84 0 001.837-1.838V3.478A1.84 1.84 0 0018.9 1.641zm.975 12.761a.976.976 0 01-.975.975h-6.347a.43.43 0 00-.36.194L10.5 18.145 8.807 15.57a.43.43 0 00-.36-.195H2.1a.977.977 0 01-.975-.975V3.478a.976.976 0 01.975-.975h16.8a.976.976 0 01.975.975v10.923z" fill="#FFC582"/><path d="M14.676 7.16l-2.354-.338-1.056-2.139a.854.854 0 00-1.532 0L8.685 6.818l-2.36.343a.854.854 0 00-.474 1.456l1.706 1.657-.403 2.352a.854.854 0 001.238.9l2.104-1.11 2.111 1.11a.854.854 0 001.24-.9l-.406-2.344 1.708-1.665a.854.854 0 00-.473-1.456zm-1.837 2.504a.854.854 0 00-.247.756l.416 2.343-2.112-1.11a.853.853 0 00-.794 0l-2.1 1.118.404-2.351a.854.854 0 00-.246-.756l-1.713-1.65 2.36-.343a.853.853 0 00.643-.468l1.04-2.141v.001l1.056 2.14a.855.855 0 00.643.467l2.356.33-1.706 1.665z" fill="#FFC582"/></svg>