<svg width="19" height="19" fill="none" xmlns="http://www.w3.org/2000/svg"><path d="M17.986 4.335h-2.635a2.61 2.61 0 00.693-1.772l-.001-.135a2.385 2.385 0 00-1.23-2.01 2.44 2.44 0 00-2.41 0l-1.2.676A4.182 4.182 0 009.5 2.907a4.182 4.182 0 00-1.704-1.813L6.598.417a2.44 2.44 0 00-2.411 0 2.385 2.385 0 00-1.23 2.011l-.001.134c0 .684.263 1.306.693 1.773H1.014C.454 4.335 0 4.79 0 5.348v2.406c0 .56.455 1.014 1.014 1.014h.464v9.12c0 .559.455 1.013 1.013 1.013H16.51c.558 0 1.013-.454 1.013-1.013v-9.12h.464c.56 0 1.014-.455 1.014-1.014V5.348c0-.558-.455-1.013-1.014-1.013zM11.62 1.829l1.198-.676a1.601 1.601 0 011.583 0c.482.271.78.758.799 1.304l.001.106c0 .977-.795 1.772-1.772 1.772H9.946a3.342 3.342 0 011.673-2.506zm-7.82.628a1.547 1.547 0 01.8-1.304 1.603 1.603 0 011.582 0l1.198.676a3.342 3.342 0 011.673 2.506H5.572A1.774 1.774 0 013.8 2.562l.001-.105zm3.8 7.595H5.86a.422.422 0 000 .845H7.6v7.16H2.49a.17.17 0 01-.169-.17V8.769H7.6v1.284zm0-2.128H1.013a.17.17 0 01-.17-.17V5.348a.17.17 0 01.17-.169H7.6v2.745zm2.955 10.133H8.444V5.179h2.11v12.878zm6.122-.17a.17.17 0 01-.17.17H11.4v-7.16h1.609a.422.422 0 100-.845h-1.61V8.768h5.279v9.12zm1.478-10.133a.17.17 0 01-.17.17H11.4V5.179h6.586a.17.17 0 01.17.17v2.405z" fill="#FFC582"/><path d="M15.014 10.897h.043a.422.422 0 000-.845h-.043a.422.422 0 000 .845zm-11.2 0h.042a.422.422 0 000-.845h-.042a.422.422 0 000 .845z" fill="#FFC582"/></svg>