<svg width="13" height="13" fill="none" xmlns="http://www.w3.org/2000/svg"><path d="M6.5 10.245a.635.635 0 100-1.27.635.635 0 000 1.27z" fill="#fff"/><path d="M6.5 0A6.496 6.496 0 000 6.5C0 10.092 2.907 13 6.5 13c3.592 0 6.5-2.907 6.5-6.5C13 2.908 10.093 0 6.5 0zm0 11.984A5.481 5.481 0 011.016 6.5 5.481 5.481 0 016.5 1.016 5.481 5.481 0 0111.984 6.5 5.481 5.481 0 016.5 11.984z" fill="#fff"/><path d="M6.5 3.263c-1.12 0-2.031.91-2.031 2.031a.508.508 0 101.015 0 1.017 1.017 0 012.032 0c0 .56-.456 1.016-1.016 1.016a.508.508 0 00-.508.507v1.27a.508.508 0 101.016 0V7.26A2.035 2.035 0 008.53 5.294c0-1.12-.911-2.031-2.031-2.031z" fill="#fff"/></svg>