<svg width="48" height="36" fill="none" xmlns="http://www.w3.org/2000/svg"><path d="M47.209 19.791l-9.699-9.698a2.327 2.327 0 00-1.658-.687H22.438v1.563h3.906v11.719h1.562v-11.72h7.946a.782.782 0 01.554.23l1.333 1.333h-3.583a1.562 1.562 0 00-1.562 1.563v7.031a1.563 1.563 0 001.562 1.563h11.719v6.25a.781.781 0 01-.781.78h-1.625a5.462 5.462 0 00-10.813 0H21.594a5.462 5.462 0 00-10.813 0H9.156a.781.781 0 01-.781-.78v-7.032H6.812v7.032a2.344 2.344 0 002.344 2.343h1.625a5.452 5.452 0 001.587 3.125H.562v1.563h37.5a5.474 5.474 0 005.407-4.688h1.625a2.344 2.344 0 002.343-2.343v-8.594a.781.781 0 00-.228-.553zM12.28 30.5a3.906 3.906 0 117.812 0 3.906 3.906 0 01-7.812 0zm7.726 3.906a5.452 5.452 0 001.587-3.125h11.062a5.452 5.452 0 001.587 3.125H20.007zm18.055 0a3.906 3.906 0 110-7.811 3.906 3.906 0 010 7.811zm-3.906-13.281v-7.031h5.146l6.573 6.573v.458H34.156z" fill="#FFC582"/><path d="M16.969 29.719h-1.563v1.562h1.563V29.72zm21.875 0H37.28v1.562h1.563V29.72zM4.469 27.375H.562v1.563H4.47v-1.563zm0-3.125H2.125v1.563h2.344V24.25zm0-3.125H2.906v1.563H4.47v-1.563zm6.25-.781A10.156 10.156 0 10.563 10.187a10.168 10.168 0 0010.156 10.157zm0-18.75a8.594 8.594 0 11-8.594 8.594 8.604 8.604 0 018.594-8.594z" fill="#FFC582"/><path d="M10.719 17.219a.781.781 0 00.552-.23c.503-.502 4.916-5.012 4.916-8.364a5.469 5.469 0 00-10.937 0c0 3.352 4.413 7.862 4.916 8.365a.781.781 0 00.553.229zm0-12.5a3.91 3.91 0 013.906 3.906c0 2.005-2.459 5.102-3.906 6.68-1.448-1.578-3.906-4.675-3.906-6.68a3.911 3.911 0 013.906-3.906z" fill="#FFC582"/><path d="M13.063 8.625a2.344 2.344 0 10-4.689 0 2.344 2.344 0 004.688 0zm-3.126 0a.781.781 0 111.563 0 .781.781 0 01-1.563 0zM33.375 24.25H30.25v1.563h3.125V24.25z" fill="#FFC582"/></svg>