<svg width="12" height="12" fill="none" xmlns="http://www.w3.org/2000/svg"><path d="M5.816 8.044a.628.628 0 00-.62.63c0 .334.269.628.62.628.352 0 .63-.294.63-.629a.635.635 0 00-.63-.629zm.106-4.763c-1.102 0-1.609.654-1.609 1.095 0 .319.27.466.49.466.441 0 .262-.63 1.095-.63.408 0 .735.18.735.556 0 .441-.457.695-.727.923-.237.205-.547.54-.547 1.242 0 .425.114.547.449.547.4 0 .482-.18.482-.334 0-.425.008-.67.458-1.022.22-.171.915-.727.915-1.495 0-.768-.695-1.348-1.74-1.348z" fill="#fff" fill-opacity=".25"/><path d="M6 0C2.684 0 0 2.684 0 6v5.531c0 .26.21.469.469.469H6c3.316 0 6-2.684 6-6S9.316 0 6 0zm0 11.063H.937V6A5.06 5.06 0 016 .937 5.06 5.06 0 0111.063 6 5.06 5.06 0 016 11.063z" fill="#fff" fill-opacity=".25"/></svg>