<svg width="16" height="16" fill="none" xmlns="http://www.w3.org/2000/svg"><path d="M10.477 5.992v8.133h4.017V.535a.469.469 0 00-.469-.468H8a.469.469 0 00-.469.468v4.05h1.54c.775 0 1.406.631 1.406 1.407zm1.07-3.448a.469.469 0 01.938 0v.502a.469.469 0 01-.937 0v-.502zm0 2.51a.469.469 0 11.938 0v.502a.469.469 0 01-.937 0v-.502zm0 2.51a.469.469 0 11.938 0v.503a.469.469 0 01-.937 0v-.502zm0 2.511a.469.469 0 01.938 0v.502a.469.469 0 11-.937 0v-.502zM9.54 2.544a.469.469 0 01.937 0v.502a.469.469 0 01-.937 0v-.502zM1.473 4.452h3.515a1.472 1.472 0 000-2.946H4.94A1.727 1.727 0 003.23 0c-.878 0-1.604.658-1.71 1.506h-.047a1.472 1.472 0 100 2.946zm14.058 10.611H.47a.469.469 0 100 .937h15.06a.469.469 0 100-.938z" fill="#A7A5AE"/><path d="M9.54 14.125V5.99a.469.469 0 00-.47-.468H1.976a.469.469 0 00-.469.468v8.134H4.05v-1.573c0-.259.21-.469.469-.469h2.008a.47.47 0 01.469.47v1.572H9.54zm-5.557-3.581a.469.469 0 01-.937 0v-.503a.469.469 0 01.937 0v.503zm0-2.51a.469.469 0 01-.937 0V7.53a.469.469 0 11.937 0v.502zm2.009 2.51a.469.469 0 01-.938 0v-.503a.469.469 0 01.938 0v.503zm0-2.51a.469.469 0 01-.938 0V7.53a.469.469 0 11.938 0v.502zm1.07-.503a.469.469 0 11.938 0v.502a.469.469 0 11-.938 0v-.502zm0 2.51a.469.469 0 01.938 0v.503a.469.469 0 11-.938 0v-.503z" fill="#A7A5AE"/><path d="M4.988 13.021h1.07v1.104h-1.07v-1.104z" fill="#A7A5AE"/></svg>