<svg width="16" height="16" fill="none" xmlns="http://www.w3.org/2000/svg"><g clip-path="url(#clip0)" fill="#A7A5AE"><path d="M10.747 1.286L3.486 5.003.6 3.583 7.733.061a.585.585 0 01.52 0l2.494 1.225zm4.645 2.297l-7.388 3.66L5.237 5.88l-.4-.203 7.269-3.717.4.203 2.886 1.42zm-7.98 4.715L7.404 16 .328 12.307A.618.618 0 010 11.763V4.638l2.999 1.477v2.598c0 .332.272.608.6.608.328 0 .6-.276.6-.608V6.716l.4.195 2.813 1.387zm8.58-3.652L8.612 8.29l-.008 7.702L16 12.13l-.008-7.484z"/></g><defs><clipPath id="clip0"><path fill="#fff" d="M0 0h16v16H0z"/></clipPath></defs></svg>