<svg width="18" height="18" fill="none" xmlns="http://www.w3.org/2000/svg"><path d="M4.125 15.819v-2.833c0-.973.42-1.899 1.153-2.54L6.93 9 5.278 7.554a3.376 3.376 0 01-1.153-2.54V2.18A1.123 1.123 0 014.5 0h9a1.123 1.123 0 01.375 2.181v2.833c0 .972-.42 1.899-1.153 2.54L11.07 9l1.653 1.446a3.376 3.376 0 011.153 2.54v2.833A1.123 1.123 0 0113.5 18h-9a1.123 1.123 0 01-.375-2.181zm.75-.069h8.25v-2.764c0-.757-.327-1.477-.896-1.975l-1.976-1.729a.374.374 0 010-.564l1.976-1.729a2.625 2.625 0 00.896-1.975V2.25h-8.25v2.764c0 .756.327 1.476.896 1.975l1.976 1.729a.374.374 0 010 .564L5.77 11.011a2.625 2.625 0 00-.896 1.975v2.764z" fill="#A7A5AE"/><path d="M5.707 14.391l3-3.75a.388.388 0 01.585 0l3 3.75a.376.376 0 01-.292.61H6a.376.376 0 01-.293-.61zm1.446-8.159A.375.375 0 017.5 6h3a.375.375 0 01.265.64l-1.5 1.5a.377.377 0 01-.53 0l-1.5-1.5a.374.374 0 01-.082-.408z" fill="#A7A5AE"/></svg>