<svg width="14" height="14" fill="none" xmlns="http://www.w3.org/2000/svg"><path d="M10.387 3.584a1.41 1.41 0 00-1.409 1.409 1.41 1.41 0 002.818 0 1.41 1.41 0 00-1.409-1.41zm0 2.271a.863.863 0 010-1.724.863.863 0 010 1.724zm.01 6.482a.267.267 0 00-.148-.148.27.27 0 00-.298.06.26.26 0 00-.059.088.256.256 0 00-.02.104.27.27 0 00.045.152.26.26 0 00.123.1.26.26 0 00.105.022.274.274 0 00.252-.378zM6.094 1.516a.29.29 0 00-.06-.089.261.261 0 00-.088-.059.276.276 0 00-.257.025.261.261 0 00-.1.123.257.257 0 00-.021.105.272.272 0 00.121.227.278.278 0 00.205.041.276.276 0 00.22-.268.273.273 0 00-.02-.105z" fill="#fff"/><path d="M12.472 1.349a1.575 1.575 0 00-1.53-1.211H2.363A2.366 2.366 0 000 2.5v8.58c0 .851.681 1.547 1.528 1.57a1.574 1.574 0 001.53 1.211h9.37c.867 0 1.572-.705 1.572-1.572V2.92c0-.852-.681-1.548-1.528-1.571zm.981 10.94c0 .566-.46 1.026-1.025 1.026h-9.37a1.027 1.027 0 01-1.026-1.025v-1.451L5.17 5.52a.511.511 0 01.453-.253.51.51 0 01.444.268l1.35 2.48L9.38 11.62a.273.273 0 10.48-.261l-.637-1.17c.28.013.555-.078.774-.26l1.23-1.02a.517.517 0 01.677.017l.064.06.547.5.938.86v1.944zm0-2.684l-.938-.86-.547-.417a1.067 1.067 0 00-1.09.16l-1.23 1.02a.584.584 0 01-.889-.17l-.862-1.584-.482-.885-.87-1.595a1.05 1.05 0 00-.914-.554 1.052 1.052 0 00-.933.522l-2.666 4.52V2.92c0-.566.46-1.026 1.026-1.026h1.69a.273.273 0 100-.547h-1.69c-.867 0-1.573.706-1.573 1.573v9.182a1.027 1.027 0 01-.938-1.022V2.5c0-1 .815-1.815 1.816-1.815h8.58c.437 0 .811.276.958.662H6.935a.273.273 0 100 .547h5.033l.547.004c.525.045.938.486.938 1.022v6.685z" fill="#fff"/></svg>