<svg width="120" height="88" fill="none" xmlns="http://www.w3.org/2000/svg"><path d="M80 103.333c-16.7 0-31.2-9.466-38.433-23.333H80V66.667H37.233c-.333-2.167-.566-4.4-.566-6.667 0-2.267.233-4.5.566-6.667H80V40H41.567C48.8 26.133 63.267 16.667 80 16.667c10.767 0 20.6 3.933 28.167 10.433L120 15.333C109.4 5.833 95.367 0 80 0 53.9 0 31.733 16.7 23.5 40H0v13.333h20.4c-.267 2.2-.4 4.4-.4 6.667 0 2.267.133 4.467.4 6.667H0V80h23.5c8.233 23.3 30.4 40 56.5 40 15.367 0 29.4-5.833 40-15.333l-11.833-11.8c-7.567 6.5-17.4 10.466-28.167 10.466z" fill="#fff" fill-opacity=".1"/></svg>