<svg width="136" height="21" fill="none" xmlns="http://www.w3.org/2000/svg"><path d="M20.784 20.635h-4.858l-1.23-3.44H6.118l-1.26 3.44H0L7.738.335h5.338l7.708 20.3zm-7.258-7.244l-3.119-8.734-3.12 8.734h6.24zM33.693 21c-3.04 0-5.579-.974-7.618-2.922-2.02-1.968-3.03-4.494-3.03-7.578 0-3.084 1.01-5.6 3.03-7.548C28.115.984 30.654 0 33.693 0c3.739 0 6.528 1.654 8.367 4.96l-3.659 1.827c-.44-.852-1.09-1.552-1.949-2.1a4.822 4.822 0 00-2.76-.852c-1.819 0-3.318.629-4.498 1.887-1.18 1.258-1.77 2.85-1.77 4.778 0 1.928.59 3.52 1.77 4.778 1.18 1.258 2.68 1.887 4.499 1.887 1 0 1.92-.274 2.76-.822a5.354 5.354 0 001.948-2.13l3.66 1.796C40.16 19.336 37.37 21 33.692 21zm22.989 0c-3.04 0-5.578-.974-7.618-2.922-2.02-1.968-3.029-4.494-3.029-7.578 0-3.084 1.01-5.6 3.03-7.548C51.103.984 53.642 0 56.681 0c3.739 0 6.528 1.654 8.368 4.96l-3.66 1.827c-.44-.852-1.089-1.552-1.949-2.1a4.822 4.822 0 00-2.759-.852c-1.82 0-3.32.629-4.499 1.887-1.18 1.258-1.77 2.85-1.77 4.778 0 1.928.59 3.52 1.77 4.778 1.18 1.258 2.68 1.887 4.499 1.887 1 0 1.92-.274 2.76-.822a5.354 5.354 0 001.949-2.13l3.659 1.796C63.15 19.336 60.36 21 56.682 21zm22.779 0c-3.019 0-5.518-.984-7.498-2.952-1.96-1.989-2.939-4.504-2.939-7.548 0-3.043.98-5.55 2.94-7.517C73.942.994 76.441 0 79.46 0c3.04 0 5.539.984 7.498 2.952 1.98 1.968 2.97 4.484 2.97 7.548s-.99 5.58-2.97 7.548C85 20.016 82.5 21 79.461 21zm-4.409-5.722c1.12 1.258 2.59 1.887 4.41 1.887 1.819 0 3.288-.629 4.408-1.887 1.12-1.258 1.68-2.85 1.68-4.778 0-1.928-.56-3.52-1.68-4.778-1.12-1.258-2.59-1.887-4.409-1.887-1.82 0-3.289.629-4.409 1.887-1.1 1.258-1.649 2.85-1.649 4.778 0 1.928.55 3.52 1.65 4.778zM117 20.635h-4.289V6.422l-5.638 14.213h-1.86L99.575 6.422v14.213h-4.259V.335h5.968l4.859 12.265L111.002.335H117v20.3zM127.325 8h-1.219V2.081H124V1h5.431v1.081h-2.106V8zM136 8h-4.284V1h1.219v5.919H136V8z" fill="#fff"/></svg>