<svg width="20" height="20" fill="none" xmlns="http://www.w3.org/2000/svg"><path d="M14.792.833c-2.219 0-4.051 2.06-4.792 3.033C9.259 2.894 7.427.833 5.208.833 2.336.833 0 3.473 0 6.72c0 1.77.703 3.42 1.933 4.55a.44.44 0 00.065.084l7.708 7.692a.416.416 0 00.589 0l7.964-7.962.082-.08c.065-.06.13-.123.201-.203a.405.405 0 00.074-.099C19.51 9.607 20 8.197 20 6.719 20 3.474 17.664.833 14.792.833zm3.13 9.4a.389.389 0 00-.03.042c-.04.044-.082.084-.125.124L10 18.161l-7.318-7.303a.418.418 0 00-.097-.124C1.472 9.762.833 8.298.833 6.72c0-2.786 1.963-5.052 4.375-5.052 2.386 0 4.421 3.11 4.442 3.142.153.238.546.238.7 0 .02-.031 2.056-3.142 4.442-3.142 2.412 0 4.375 2.266 4.375 5.052 0 1.312-.442 2.56-1.244 3.513z" fill="#EB3F57"/></svg>