<svg width="42" height="40" fill="none" xmlns="http://www.w3.org/2000/svg"><g filter="url(#filter0_d)"><path d="M26.156 6c-1.194 0-2.288.39-3.253 1.158-.925.736-1.54 1.675-1.903 2.357-.363-.682-.978-1.62-1.903-2.357C18.132 6.39 17.037 6 15.844 6 12.512 6 10 8.806 10 12.527c0 4.02 3.134 6.77 7.88 10.935.805.707 1.718 1.508 2.668 2.363a.675.675 0 00.905 0c.949-.855 1.862-1.656 2.668-2.364C28.866 19.298 32 16.547 32 12.527 32 8.807 29.488 6 26.156 6z" fill="#EB4159"/></g><defs><filter id="filter0_d" x="0" y="0" width="42" height="40" filterUnits="userSpaceOnUse" color-interpolation-filters="sRGB"><feFlood flood-opacity="0" result="BackgroundImageFix"/><feColorMatrix in="SourceAlpha" values="0 0 0 0 0 0 0 0 0 0 0 0 0 0 0 0 0 0 127 0"/><feOffset dy="4"/><feGaussianBlur stdDeviation="5"/><feColorMatrix values="0 0 0 0 0.921569 0 0 0 0 0.254902 0 0 0 0 0.34902 0 0 0 0.5 0"/><feBlend in2="BackgroundImageFix" result="effect1_dropShadow"/><feBlend in="SourceGraphic" in2="effect1_dropShadow" result="shape"/></filter></defs></svg>